Coordinates
version=1
nRows=8
nColumns=63
inDegrees=yes

Units are S.I. units (second, meters, Newtons, ...)
If the header above contains a line with 'inDegrees', this indicates whether rotational values are in degrees (yes) or radians (no).

endheader
time	pelvis_tilt	pelvis_list	pelvis_rotation	pelvis_tx	pelvis_ty	pelvis_tz	hip_flexion_r	hip_adduction_r	hip_rotation_r	knee_angle_r	knee_angle_r_beta	ankle_angle_r	subtalar_angle_r	mtp_angle_r	hip_flexion_l	hip_adduction_l	hip_rotation_l	knee_angle_l	knee_angle_l_beta	ankle_angle_l	subtalar_angle_l	mtp_angle_l	L5_S1_Flex_Ext	L5_S1_Lat_Bending	L5_S1_axial_rotation	L4_L5_Flex_Ext	L4_L5_Lat_Bending	L4_L5_axial_rotation	L3_L4_Flex_Ext	L3_L4_Lat_Bending	L3_L4_axial_rotation	L2_L3_Flex_Ext	L2_L3_Lat_Bending	L2_L3_axial_rotation	L1_L2_Flex_Ext	L1_L2_Lat_Bending	L1_L2_axial_rotation	L1_T12_Flex_Ext	L1_T12_Lat_Bending	L1_T12_axial_rotation	Abs_r3	Abs_r2	Abs_r1	Abs_t1	Abs_t2	neck_flexion	neck_bending	neck_rotation	arm_flex_r	arm_add_r	arm_rot_r	elbow_flex_r	pro_sup_r	wrist_flex_r	wrist_dev_r	arm_flex_l	arm_add_l	arm_rot_l	elbow_flex_l	pro_sup_l	wrist_flex_l	wrist_dev_l
     11.73300000	    -52.55567806	     -2.40603503	     -6.91670272	     -0.25065450	      1.01217139	      0.03053553	    124.99193498	      0.04121369	     -1.98164118	    118.99298984	      2.07681946	      9.93108757	     -3.83923962	      0.00000000	     85.27124223	    -13.21584577	     -1.24904945	     47.08912131	      0.82186021	      5.12593545	      4.78278351	      0.00000000	     -0.08031316	      0.21298402	      1.17952763	     -0.14914956	      0.28326875	      1.25324810	     -0.13194648	      0.51784934	      1.25324810	     -0.09178991	      0.51784934	      1.03208667	     -0.07457880	      0.43431701	      0.95836620	     -0.04589094	      0.32991225	      0.88464572	     -0.57366884	      2.40931782	      6.56017879	      0.00000000	      0.00000000	      0.00000000	      0.00000000	      0.00000000	     72.57613074	    -10.23760872	     14.57482613	     29.88058757	     60.04864419	      0.00000000	      5.00000014	     70.07052460	    -11.16764278	      8.31434293	     33.93380295	     62.01371206	      0.00000000	      5.00000014
     11.74200000	    -52.62032236	     -2.60409732	     -6.96762195	     -0.25106021	      1.01254193	      0.03079809	    125.87478011	      0.06767717	     -2.36363216	    118.34237522	      2.06546409	      9.77626144	     -4.40582647	      0.00000000	     85.09656997	    -13.30096278	     -0.88768269	     47.96057176	      0.83706989	      4.86474295	      4.59265387	      0.00000000	     -0.08049353	      0.24359339	      1.17285338	     -0.14948454	      0.32397921	      1.24615671	     -0.13224282	      0.59227298	      1.24615671	     -0.09199606	      0.59227298	      1.02624670	     -0.07474629	      0.49673565	      0.95294337	     -0.04599400	      0.37732617	      0.87964003	     -0.57495725	      2.75557719	      6.52305863	      0.00000000	      0.00000000	      0.00000000	      0.00000000	      0.00000000	     72.75699339	    -10.06157604	     14.64900991	     29.59511081	     59.81544402	      0.00000000	      5.00000014	     69.94470705	    -11.27877638	      8.03610748	     33.99934829	     61.72423938	      0.00000000	      5.00000014
     11.75000000	    -52.69372874	     -2.63369457	     -6.85570888	     -0.25152277	      1.01299761	      0.03100671	    126.62719416	      0.09262949	     -2.44384723	    117.44540988	      2.04980909	      9.86412629	     -4.54190895	      0.00000000	     85.01123996	    -13.20476305	     -0.64547533	     49.00425474	      0.85528559	      4.79598029	      4.49423735	      0.00000000	     -0.08063973	      0.24852955	      1.13392175	     -0.14975605	      0.33054430	      1.20479186	     -0.13248302	      0.60427475	      1.20479186	     -0.09216315	      0.60427475	      0.99218153	     -0.07488205	      0.50680146	      0.92131142	     -0.04607754	      0.38497227	      0.85044131	     -0.57600154	      2.81141598	      6.30653258	      0.00000000	      0.00000000	      0.00000000	      0.00000000	      0.00000000	     72.76669401	     -9.93020245	     14.69623123	     29.71911794	     59.79038725	      0.00000000	      5.00000014	     69.91004869	    -11.47124926	      7.96086797	     34.06222267	     61.69166724	      0.00000000	      5.00000014
     11.75800000	    -52.81416693	     -2.97900463	     -6.86760633	     -0.25209624	      1.01360804	      0.03116914	    127.13923442	      0.06098265	     -2.93295780	    116.19323517	      2.02795452	      9.77758062	     -5.03122814	      0.00000000	     85.24465019	    -13.26633289	     -0.01899469	     50.39211364	      0.87950830	      4.50821104	      4.14265331	      0.00000000	     -0.08116274	      0.29522356	      1.11855878	     -0.15072733	      0.39264733	      1.18846871	     -0.13334227	      0.71780656	      1.18846871	     -0.09276090	      0.71780656	      0.97873894	     -0.07536772	      0.60201988	      0.90882901	     -0.04637639	      0.45730129	      0.83891909	     -0.57973735	      3.33962794	      6.22108839	      0.00000000	      0.00000000	      0.00000000	      0.00000000	      0.00000000	     72.94073615	     -9.81870631	     14.73527274	     29.58983382	     59.79531651	      0.00000000	      5.00000014	     69.79903242	    -11.61368102	      7.89363363	     34.23231635	     61.71820140	      0.00000000	      5.00000014
     11.76700000	    -52.91577766	     -2.99580023	     -6.61466630	     -0.25265767	      1.01414052	      0.03118080	    127.56758305	      0.01220971	     -2.90817985	    114.83165745	      2.00419051	      9.90866026	     -5.11448322	      0.00000000	     85.46488696	    -13.05825921	      0.18827741	     51.87606249	      0.90540809	      4.50687619	      3.99973659	      0.00000000	     -0.08007124	      0.29645470	      1.05217142	     -0.14870030	      0.39428475	      1.11793214	     -0.13154904	      0.72079996	      1.11793214	     -0.09151342	      0.72079996	      0.92064999	     -0.07435416	      0.60453043	      0.85488928	     -0.04575271	      0.45920833	      0.78912857	     -0.57194088	      3.35355488	      5.85186180	      0.00000000	      0.00000000	      0.00000000	      0.00000000	      0.00000000	     72.98446122	     -9.67046082	     14.77081534	     29.68072870	     59.76798473	      0.00000000	      5.00000014	     69.82502284	    -11.78045030	      7.82842039	     34.26319568	     61.68449500	      0.00000000	      5.00000014
     11.77500000	    -53.01219947	     -3.15508775	     -6.38624853	     -0.25326682	      1.01463540	      0.03115370	    127.76960370	     -0.06465655	     -2.98633719	    113.24352182	      1.97647231	     10.07814278	     -5.18937201	      0.00000000	     85.88771346	    -12.94208842	      0.48000934	     53.65340495	      0.93642857	      4.40557159	      3.76623683	      0.00000000	     -0.08163919	      0.31257655	      0.99443186	     -0.15161213	      0.41572681	      1.05658385	     -0.13412502	      0.75999861	      1.05658385	     -0.09330543	      0.75999861	      0.87012788	     -0.07581015	      0.63740609	      0.80797589	     -0.04664863	      0.48418107	      0.74582390	     -0.58314055	      3.53592841	      5.53073169	      0.00000000	      0.00000000	      0.00000000	      0.00000000	      0.00000000	     73.06794256	     -9.58049829	     14.76554150	     29.68196366	     59.72203867	      0.00000000	      5.00000014	     69.88000992	    -11.87520055	      7.79567876	     34.35763918	     61.63970471	      0.00000000	      5.00000014
     11.78300000	    -53.15170404	     -3.69961904	     -6.38236443	     -0.25395521	      1.01518661	      0.03099919	    127.68274801	     -0.20860224	     -3.57531528	    111.37304928	      1.94382641	     10.33158109	     -5.39727954	      0.00000000	     86.61234081	    -13.08861606	      1.15414161	     55.74392350	      0.97291500	      4.01858998	      3.10182952	      0.00000000	     -0.08243512	      0.38444713	      0.97963525	     -0.15309027	      0.51131469	      1.04086245	     -0.13543266	      0.93474476	      1.04086245	     -0.09421510	      0.93474476	      0.85718084	     -0.07654926	      0.78396459	      0.79595364	     -0.04710343	      0.59550861	      0.73472644	     -0.58882584	      4.34894286	      5.44843738	      0.00000000	      0.00000000	      0.00000000	      0.00000000	      0.00000000	     73.36007782	     -9.50203696	     14.78123570	     29.43478781	     59.70453987	      0.00000000	      5.00000014	     69.80988107	    -11.88746447	      7.71996840	     34.48162811	     61.63570374	      0.00000000	      5.00000014
     11.79200000	    -53.22458346	     -3.70457907	     -5.89857547	     -0.25454315	      1.01536973	      0.03062751	    127.62321487	     -0.40586468	     -3.30084963	    109.59942022	      1.91287074	     10.52976104	     -5.33061362	      0.00000000	     87.17120087	    -12.75007571	      1.25001658	     57.82384642	      1.00921651	      4.07608419	      2.85585418	      0.00000000	     -0.08140733	      0.37877732	      0.87598047	     -0.15118155	      0.50377383	      0.93072925	     -0.13374410	      0.92095917	      0.93072925	     -0.09304043	      0.92095917	      0.76648291	     -0.07559484	      0.77240271	      0.71173413	     -0.04651615	      0.58672606	      0.65698535	     -0.58148439	      4.28480477	      4.87194058	      0.00000000	      0.00000000	      0.00000000	      0.00000000	      0.00000000	     73.38034556	     -9.42509694	     14.81065916	     29.54951368	     59.65005379	      0.00000000	      5.00000014	     69.92255193	    -11.96182890	      7.64525651	     34.53934652	     61.56618413	      0.00000000	      5.00000014
